<?xml version="1.0" encoding="UTF-8"?>
<svg id="Layer_1" xmlns="http://www.w3.org/2000/svg" version="1.1" viewBox="0 0 162.5 124.4">
  <!-- Generator: Adobe Illustrator 30.5.1, SVG Export Plug-In . SVG Version: 2.1.4 Build 3)  -->
  <defs>
    <style>
      .st0 {
        fill: #ff4e31;
      }

      .st1 {
        fill: #509bff;
      }

      .st2 {
        fill: #fdd65b;
      }
    </style>
  </defs>
  <path class="st2" d="M124.4,62.2h0c0-27.7-18.1-51.1-43.1-59.2h0c-25,8.1-43.1,31.5-43.1,59.2s18.1,51.2,43.1,59.2h0,0c25-8.1,43.1-31.6,43.1-59.2Z"/>
  <path class="st1" d="M100.3,0C93.7,0,87.2,1,81.2,3h0c25,8.1,43.1,31.5,43.1,59.2s-18.1,51.1-43.1,59.2h0c6,2,12.4,3,19,3,34.4,0,62.2-27.9,62.2-62.2C162.5,27.8,134.6,0,100.3,0Z"/>
  <path class="st0" d="M38.1,62.2c0-27.7,18.1-51.1,43.1-59.2-6-2-12.4-3-19.1-3C27.8,0,0,27.8,0,62.2s27.9,62.2,62.2,62.2,13.1-1,19.1-3c-25-8-43.1-31.5-43.1-59.2Z"/>
  <path class="st1" d="M84.1,53.5h7.7c.3,0,.6.3.6.6v23.4c0,.3.3.6.6.6h7c.3,0,.6-.3.6-.6v-23.4c0-.3.3-.6.6-.6h7.7c.3,0,.6-.3.6-.6v-6c0-.3-.3-.6-.6-.6h-24.7c-.3,0-.6.3-.6.6v5.9c0,.3.3.6.6.6Z"/>
  <path class="st0" d="M57.1,78.1h7c.3,0,.6-.3.6-.6v-11.4c0-.3.3-.6.6-.6h13.6c.3,0,.6-.3.6-.6v-5.8c0-.3-.3-.6-.6-.6h-13.6c-.3,0-.6-.3-.6-.6v-4c0-.3.3-.6.6-.6h13.9c.3,0,.6-.3.6-.6v-6c0-.3-.3-.6-.6-.6h-22.1c-.3,0-.6.3-.6.6v30.5c0,.3.3.6.6.6Z"/>
</svg>