<?xml version="1.0" encoding="UTF-8"?>
<svg id="Layer_1" xmlns="http://www.w3.org/2000/svg" version="1.1" viewBox="0 0 222.1 170.1">
  <!-- Generator: Adobe Illustrator 30.5.1, SVG Export Plug-In . SVG Version: 2.1.4 Build 3)  -->
  <defs>
    <style>
      .st0 {
        fill: #ff4e31;
      }

      .st1 {
        fill: none;
      }

      .st2 {
        fill: #509bff;
      }

      .st3 {
        fill: #fdd65b;
      }
    </style>
  </defs>
  <g>
    <g>
      <path class="st1" d="M154.8,65.2h0Z"/>
      <path class="st3" d="M154.8,65.2h0c0-29-19-53.6-45.2-62.1h0c-26.2,8.5-45.2,33-45.2,62.1s19,53.7,45.2,62.1h0,0c26.2-8.5,45.2-33.1,45.2-62.1Z"/>
      <path class="st2" d="M129.6,0C122.7,0,115.9,1.1,109.6,3.1h0c26.2,8.5,45.2,33,45.2,62.1h0c0,29-19,53.6-45.2,62.1h0c6.3,2.1,13,3.1,19.9,3.1,36,0,65.2-29.2,65.2-65.2C194.8,29.2,165.6,0,129.6,0Z"/>
      <path class="st0" d="M64.4,65.2c0-29,19-53.6,45.2-62.1-6.3-2.1-13-3.1-20-3.1C53.6,0,24.4,29.2,24.4,65.2s29.2,65.2,65.2,65.2,13.7-1.1,20-3.1h0c-26.3-8.4-45.2-33-45.2-62.1Z"/>
    </g>
    <g>
      <path class="st2" d="M112.6,56.1h8.1c.4,0,.6.3.6.6v24.5c0,.4.3.6.6.6h7.3c.4,0,.6-.3.6-.6v-24.5c0-.4.3-.6.6-.6h8c.4,0,.6-.3.6-.6v-6.3c0-.4-.3-.6-.6-.6h-25.9c-.4,0-.6.3-.6.6v6.2c0,.4.4.7.7.7Z"/>
      <path class="st0" d="M84.3,81.9h7.3c.4,0,.6-.3.6-.6v-12c0-.4.3-.6.6-.6h14.2c.4,0,.6-.3.6-.6v-6c0-.4-.3-.6-.6-.6h-14.2c-.4,0-.6-.3-.6-.6v-4.2c0-.4.3-.6.6-.6h14.5c.4,0,.6-.3.6-.6v-6.3c0-.4-.3-.6-.6-.6h-23.1c-.4,0-.6.3-.6.6v32c0,.4.3.7.7.7Z"/>
    </g>
  </g>
  <g>
    <path class="st2" d="M5.4,154.6v3.3c0,.3.2.5.5.5h7.2c.3,0,.5.2.5.5v3.3c0,.3-.2.5-.5.5h-7.2c-.3,0-.5.2-.5.5v5.7c0,.3-.2.5-.5.5H.5c-.3,0-.5-.2-.5-.5v-18.5c0-.3.2-.5.5-.5h13.6c.3,0,.5.2.5.5v3.3c0,.3-.2.5-.5.5H5.9c-.2-.2-.5,0-.5.3Z"/>
    <path class="st2" d="M20.1,149.9h4.2c.3,0,.5.2.5.5v18.5c0,.3-.2.5-.5.5h-4.2c-.3,0-.5-.2-.5-.5v-18.5c0-.3.2-.5.5-.5Z"/>
    <path class="st2" d="M44.7,165.7v3.3c0,.3-.2.5-.5.5h-13.9c-.3,0-.5-.2-.5-.5v-18.5c0-.3.2-.5.5-.5h13.6c.3,0,.5.2.5.5v3.3c0,.3-.2.5-.5.5h-8.3c-.3,0-.5.2-.5.5v2.3c0,.3.2.5.5.5h7.2c.3,0,.5.2.5.5v3.1c0,.3-.2.5-.5.5h-7.2c-.3,0-.5.2-.5.5v2.5c0,.3.2.5.5.5h8.7c.3-.2.5,0,.5.3Z"/>
    <path class="st2" d="M50.1,149.9h4.2c.3,0,.5.2.5.5v14.1c0,.3.2.5.5.5h7.8c.3,0,.5.2.5.5v3.4c0,.3-.2.5-.5.5h-13.2c-.3,0-.5-.2-.5-.5v-18.5c0-.4.2-.6.5-.6Z"/>
    <path class="st2" d="M68.6,150.4c0-.3.2-.5.5-.5h8.3c6.2,0,10.4,3.7,10.4,9.8s-4.2,9.8-10.4,9.8h-8.3c-.3,0-.5-.2-.5-.5v-18.5h0ZM77.3,165c3.1,0,5.3-2,5.3-5.4s-2.1-5.4-5.3-5.4h-2.8c-.3,0-.5.2-.5.5v9.7c0,.3.2.5.5.5h2.8Z"/>
    <path class="st0" d="M99.5,153.8h-4.8c-.3,0-.5-.2-.5-.5v-3.4c0-.3.2-.5.5-.5h15.9c.3,0,.5.2.5.5v3.4c0,.3-.2.5-.5.5h-4.8c-.3,0-.5.2-.5.5v14.4c0,.3-.2.5-.5.5h-4.3c-.3,0-.5-.2-.5-.5v-14.4c.1-.3-.1-.5-.4-.5Z"/>
    <path class="st0" d="M134.4,149.9v18.9c0,.3-.2.5-.5.5h-4.3c-.3,0-.5-.2-.5-.5v-6.8c0-.3-.2-.5-.5-.5h-6.3c-.3,0-.5.2-.5.5v6.8c0,.3-.2.5-.5.5h-4.3c-.3,0-.5-.2-.5-.5v-18.9c0-.3.2-.5.5-.5h4.3c.3,0,.5.2.5.5v6.5c0,.3.2.5.5.5h6.3c.3,0,.5-.2.5-.5v-6.5c0-.3.2-.5.5-.5h4.3c.3,0,.5.2.5.5Z"/>
    <path class="st0" d="M155.4,165.5v3.3c0,.3-.2.5-.5.5h-14.2c-.3,0-.5-.2-.5-.5v-19c0-.3.2-.5.5-.5h13.8c.3,0,.5.2.5.5v3.3c0,.3-.2.5-.5.5h-8.5c-.3,0-.5.2-.5.5v2.4c0,.3.2.5.5.5h7.4c.3,0,.5.2.5.5v3.2c0,.3-.2.5-.5.5h-7.4c-.3,0-.5.2-.5.5v2.6c0,.3.2.5.5.5h8.9c.3-.1.5.1.5.4Z"/>
    <path class="st0" d="M191.9,164h-2.1c-.3,0-.5.2-.5.5v4.3c0,.3-.2.5-.5.5h-4.3c-.3,0-.5-.2-.5-.5v-18.9c0-.3.2-.5.5-.5h8.1c5.2,0,8.4,2.8,8.4,7.4s-1.1,4.8-3.3,6c-.2.1-.3.5-.2.7l3.3,5c.2.4,0,.8-.4.8h-4.5c-.2,0-.4,0-.4-.2l-3.1-4.8c0-.2-.2-.2-.4-.2ZM192.3,153.8h-2.5c-.3,0-.5.2-.5.5v4.8c0,.3.2.5.5.5h2.5c2.2,0,3.3-1.1,3.3-2.9s-1.1-3-3.3-3Z"/>
    <path class="st0" d="M215.4,162.3v6.5c0,.3-.2.5-.5.5h-4.3c-.3,0-.5-.2-.5-.5v-6.6c0,0,0-.2,0-.2l-6.7-11.8c-.2-.4,0-.8.4-.8h4.5c.2,0,.4.1.4.2l3.9,6.9c.2.4.7.4.9,0l3.9-6.9c0-.2.2-.2.4-.2h4c.4,0,.7.4.4.8l-6.8,11.9c.2,0,.2.1.2.2Z"/>
    <path class="st0" d="M158.8,159.2c.2-6.1,4.9-10.4,11.2-10.2,6.2.2,10.7,4.8,10.5,10.9-.2,6.1-4.9,10.4-11.2,10.2-6.3-.2-10.7-4.8-10.5-10.9ZM174.9,159.7c.1-3.5-2.1-5.9-5.1-6-3-.1-5.4,2.1-5.4,5.6-.1,3.5,2.1,5.9,5.1,6,3,.1,5.3-2.1,5.4-5.6Z"/>
  </g>
</svg>