<svg xmlns="http://www.w3.org/2000/svg" viewBox="0 0 620 360"><rect width="620" height="360" rx="18" fill="#242424"/><g fill="none" stroke-linecap="round" stroke-linejoin="round"><rect x="185" y="70" width="210" height="150" rx="12" stroke="#4a8cff" stroke-width="5"/><rect x="225" y="105" width="90" height="55" stroke="#4a8cff" stroke-width="5"/><path d="M195 240h185M260 220l-25 20M320 220l30 20" stroke="#fff" stroke-width="5"/><rect x="330" y="135" width="90" height="105" rx="10" stroke="#4a8cff" stroke-width="5"/><rect x="450" y="115" width="70" height="130" rx="16" stroke="#4a8cff" stroke-width="5"/><rect x="80" y="235" width="96" height="30" rx="6" stroke="#fff" stroke-width="4"/><rect x="90" y="275" width="96" height="30" rx="6" stroke="#fff" stroke-width="4"/><circle cx="230" cy="275" r="22" stroke="#4a8cff" stroke-width="5"/><circle cx="520" cy="72" r="24" stroke="#4a8cff" stroke-width="4"/><text x="505" y="78" fill="#fff" font-family="Montserrat,Arial" font-size="18">API</text><path d="M130 215 C150 175,140 130,180 120" stroke="#4a8cff" stroke-width="3" stroke-dasharray="7 12"/><path d="M385 120 C425 92,455 84,496 75" stroke="#ff4b35" stroke-width="3" stroke-dasharray="7 12"/><path d="M120 270 C160 270,175 278,208 275" stroke="#ff4b35" stroke-width="3" stroke-dasharray="7 12"/></g></svg>