<svg xmlns="http://www.w3.org/2000/svg" viewBox="0 0 620 360"><rect width="620" height="360" rx="18" fill="#242424"/><g fill="none" stroke-linecap="round" stroke-linejoin="round"><circle cx="315" cy="130" r="68" stroke="#4a8cff" stroke-width="10"/><circle cx="315" cy="130" r="45" stroke="#ff4b35" stroke-width="7"/><circle cx="315" cy="130" r="24" stroke="#ffdd45" stroke-width="6"/><path d="M315 130l98-92" stroke="#ff4b35" stroke-width="5"/><path d="M390 32l45-12-18 45" fill="#ff4b35" stroke="#ff4b35" stroke-width="2"/><path d="M145 245l65-25 75 16 70-42 110 20" stroke="#4a8cff" stroke-width="5"/><path d="M145 285h245" stroke="#4a8cff" stroke-width="4"/><rect x="70" y="82" width="88" height="40" rx="5" stroke="#4a8cff" stroke-width="4"/><path d="M88 103h52M88 115h52" stroke="#4a8cff" stroke-width="4"/><rect x="438" y="80" width="92" height="48" rx="5" stroke="#ff4b35" stroke-width="4"/><path d="M448 90l37 25 36-25" stroke="#ff4b35" stroke-width="4"/><rect x="454" y="245" width="85" height="60" rx="5" stroke="#ffdd45" stroke-width="4"/><path d="M474 286v-20M497 286v-38M520 286v-28" stroke="#ffdd45" stroke-width="7"/><rect x="70" y="218" width="78" height="48" rx="5" stroke="#ff4b35" stroke-width="4"/><path d="M132 230l-38 15 38 15z" stroke="#ff4b35" stroke-width="4"/></g></svg>